<svg xmlns="http://www.w3.org/2000/svg" fill="#FFFFFF" width="80" height="80" viewBox="0 0 150 50" preserveAspectRatio="xMinYMid" aria-hidden="true" focusable="false"><path d="M133,1.47v30.8c0,1.51-2.25,1.84-3.12,1.84,0,0-3,0-3-1.84V1.47H111.23V17.74C108.6,8.86,101.07,1.47,89,1.47H70.9V42.54L53.82,1h-11l-12,30.3A35.89,35.89,0,0,0,31,27.42V1.47H5.5V16.3h10V27.42c0,3.35,0,6-11.42,6H1.3v15H4.07c9.64,0,16.12-1.5,20.4-4.72a15.43,15.43,0,0,0,2.4-2.24l-2.75,7H89c7.16,0,13.19-2.55,17.46-7.37a23,23,0,0,0,4.79-8.73h0a15.42,15.42,0,0,0,6,12.65,20.65,20.65,0,0,0,12.62,4h.18c9.26,0,18.64-5.72,18.64-16.67V1.47ZM23.36,42.21c-3.94,3-10.07,4.35-19.29,4.35H3.15V35.25h.92c11.28,0,13.27-2.52,13.27-7.83v-13h-10V3.32h21.9v24.1C29.24,34.49,27.37,39.19,23.36,42.21Zm3.48,4.35L44.13,2.85h8.46l18,43.71Zm78.22-6.75c-3.91,4.42-9.47,6.75-16.08,6.75H72.75V3.32H89c6.56,0,12.09,2.34,16,6.76A22.78,22.78,0,0,1,110.43,25,22.21,22.21,0,0,1,105.06,39.81Zm41.79-7.48a13.59,13.59,0,0,1-5.15,11,18.93,18.93,0,0,1-11.64,3.82h-.18a18.82,18.82,0,0,1-11.49-3.63,13.64,13.64,0,0,1-5.32-11.19v-29h12v29c0,2.54,2.53,3.69,4.89,3.69s5-1.15,5-3.69v-29h12Zm-95,.52-1.66-4.7-1.74-4.93-1.74,4.93L45,32.85l-.87,2.46H52.7Zm-5.06.61,1.66-4.7,1.66,4.7ZM96.53,18.57A8.5,8.5,0,0,0,89,14.51H84.59V35.25H89c6.44,0,9.37-5.31,9.37-10.25A12.59,12.59,0,0,0,96.53,18.57ZM89,33.4H86.43v-17H89c6,0,7.52,5.65,7.52,8.64S94.92,33.4,89,33.4ZM28.32,4.24V27.42c0,13.19-6.63,18.22-24.25,18.22V36.18c10.94,0,14.19-2.37,14.19-8.76V13.53h-10V4.24ZM52,3.77H44.75L28.2,45.64h41ZM48.42,20.45,54,36.24H42.84ZM89,4.24H73.67v41.4H89c13.66,0,20.52-10.29,20.52-20.64S102.64,4.24,89,4.24Zm0,31.94H83.66V13.59H89c7,0,10.29,6,10.29,11.41S96,36.18,89,36.18ZM145.93,4.24V32.33c0,9.29-7.94,13.9-15.87,13.9h-.16c-8,0-15.9-4.55-15.9-13.9V4.24h10.11v28c0,3.09,2.9,4.62,5.81,4.62s5.9-1.56,5.9-4.62v-28Z"/></svg>
